<svg xmlns="http://www.w3.org/2000/svg" width="456" height="415" viewBox="0 0 456 415"><g transform="translate(0 -20.149)"><ellipse cx="207" cy="207.5" rx="207" ry="207.5" transform="translate(31 20.149)" fill="#69cdff"/><rect width="70.101" height="36.72" transform="translate(165.407 318.898)" fill="#445ea0"/><rect width="17.672" height="36.72" transform="translate(165.407 318.898)" fill="#2e4c89"/><path d="M295.594,398.763H127a4.557,4.557,0,0,0-4.543,4.544v22.774A4.557,4.557,0,0,0,127,430.625H295.594V398.763Z" transform="translate(-13.394 -44.032)" fill="#293d7c"/><path d="M140.131,426.08V403.306a4.557,4.557,0,0,1,4.544-4.544H127a4.557,4.557,0,0,0-4.543,4.544V426.08A4.557,4.557,0,0,0,127,430.624h17.672A4.557,4.557,0,0,1,140.131,426.08Z" transform="translate(-13.394 -44.032)" fill="#1a2b63"/><path d="M396.376,58.964H4.544A4.557,4.557,0,0,0,0,63.508V322.113a4.557,4.557,0,0,0,4.544,4.544H282.2V190.6a6.242,6.242,0,0,1,6.234-6.234H400.92V63.508A4.557,4.557,0,0,0,396.376,58.964Z" transform="translate(0 -6.867)" fill="#293d7c"/><path d="M22.4,286.692a2.733,2.733,0,0,0,2.726,2.725H284.649V196.074a6.242,6.242,0,0,1,6.234-6.234h92.54V109H22.4Z" transform="translate(-2.45 -12.339)" fill="#fff"/><path d="M40.069,286.692V109H22.4V286.692a2.733,2.733,0,0,0,2.726,2.725H42.795A2.734,2.734,0,0,1,40.069,286.692Z" transform="translate(-2.45 -12.339)" fill="#d9eafc"/><circle cx="12.267" cy="12.267" r="12.267" transform="translate(188.194 286.084)" fill="#445ea0"/><path d="M310.685,223.146H263.1a2.68,2.68,0,0,0-2.672,2.672v53.116a2.68,2.68,0,0,0,2.672,2.672h47.581Z" transform="translate(-28.485 -24.824)" fill="#c3ddf4"/><path d="M278.1,278.934V225.818a2.68,2.68,0,0,1,2.672-2.672H263.1a2.68,2.68,0,0,0-2.672,2.672v53.116a2.68,2.68,0,0,0,2.672,2.672h17.672A2.68,2.68,0,0,1,278.1,278.934Z" transform="translate(-28.485 -24.824)" fill="#aec1ed"/><path d="M297.149,192.07h41.519V133.839a4.466,4.466,0,0,0-4.453-4.453H84.135a4.466,4.466,0,0,0-4.453,4.453v59.249a4.466,4.466,0,0,0,4.453,4.453H290.968A6.24,6.24,0,0,1,297.149,192.07Z" transform="translate(-8.715 -14.569)" fill="#c3ddf4"/><path d="M97.354,193.087V133.838a4.466,4.466,0,0,1,4.453-4.453H84.135a4.466,4.466,0,0,0-4.453,4.453v59.249a4.466,4.466,0,0,0,4.453,4.453h17.672A4.466,4.466,0,0,1,97.354,193.087Z" transform="translate(-8.715 -14.569)" fill="#aec1ed"/><path d="M380.7,84.983H25.122A2.734,2.734,0,0,0,22.4,87.71v19.552H383.423V87.71A2.734,2.734,0,0,0,380.7,84.983Z" transform="translate(-2.45 -9.713)" fill="#ffaf10"/><path d="M42.795,84.983H25.122A2.734,2.734,0,0,0,22.4,87.71v19.552H40.068V87.71A2.735,2.735,0,0,1,42.795,84.983Z" transform="translate(-2.45 -9.713)" fill="#ff9518"/><g transform="translate(71.102 199.064)"><path d="M161.478,237.338H86.514a6.68,6.68,0,0,1,0-13.359h74.964a6.68,6.68,0,0,1,0,13.359Z" transform="translate(-79.834 -223.979)" fill="#5dc1d8"/><path d="M161.478,261.825H86.514a6.68,6.68,0,1,1,0-13.359h74.964a6.68,6.68,0,1,1,0,13.359Z" transform="translate(-79.834 -226.657)" fill="#5dc1d8"/><path d="M161.478,286.312H86.514a6.68,6.68,0,0,1,0-13.359h74.964a6.68,6.68,0,0,1,0,13.359Z" transform="translate(-79.834 -229.336)" fill="#5dc1d8"/><path d="M232,237.338H193.414a6.68,6.68,0,0,1,0-13.359H232a6.68,6.68,0,0,1,0,13.359Z" transform="translate(-91.526 -223.979)" fill="#5dc1d8"/><path d="M232,261.825H193.414a6.68,6.68,0,1,1,0-13.359H232a6.68,6.68,0,1,1,0,13.359Z" transform="translate(-91.526 -226.657)" fill="#5dc1d8"/><path d="M232,286.312H193.414a6.68,6.68,0,0,1,0-13.359H232a6.68,6.68,0,0,1,0,13.359Z" transform="translate(-91.526 -229.336)" fill="#5dc1d8"/></g><path d="M483.422,198.768a7.146,7.146,0,0,1,7.125,7.125V421.219a7.146,7.146,0,0,1-7.125,7.125H322.981a7.146,7.146,0,0,1-7.125-7.125V205.893a7.146,7.146,0,0,1,7.125-7.125Z" transform="translate(-34.547 -22.158)" fill="#445ea0"/><path d="M337.02,402.053a4.466,4.466,0,0,1-4.453-4.453V218.633a4.466,4.466,0,0,1,4.453-4.453H473.039a4.466,4.466,0,0,1,4.453,4.453V397.6a4.466,4.466,0,0,1-4.453,4.453Z" transform="translate(-36.375 -23.843)" fill="#fff"/><path d="M350.239,397.6V218.633a4.466,4.466,0,0,1,4.453-4.453H337.02a4.466,4.466,0,0,0-4.453,4.453V397.6a4.466,4.466,0,0,0,4.453,4.453h17.672A4.466,4.466,0,0,1,350.239,397.6Z" transform="translate(-36.375 -23.843)" fill="#d9eafc"/><path d="M404.02,443.819a4.466,4.466,0,0,1-4.453-4.453v-1.732a4.466,4.466,0,0,1,4.453-4.453H420.7a4.466,4.466,0,0,1,4.453,4.453v1.732a4.466,4.466,0,0,1-4.453,4.453Z" transform="translate(-43.703 -47.797)" fill="#445ea0"/><path d="M477.492,231.363v-12.73a4.466,4.466,0,0,0-4.453-4.453H337.02a4.466,4.466,0,0,0-4.453,4.453v12.73Z" transform="translate(-36.375 -23.843)" fill="#ffaf10"/><path d="M354.692,214.18H337.02a4.466,4.466,0,0,0-4.453,4.453v12.73h17.672v-12.73A4.466,4.466,0,0,1,354.692,214.18Z" transform="translate(-36.375 -23.843)" fill="#ff9518"/><g transform="translate(331.619 275.617)"><path d="M439.737,323.292H379.024a6.68,6.68,0,1,1,0-13.359h60.713a6.68,6.68,0,1,1,0,13.359Z" transform="translate(-372.344 -309.933)" fill="#5dc1d8"/><path d="M439.737,346.419H379.024a6.68,6.68,0,1,1,0-13.359h60.713a6.68,6.68,0,1,1,0,13.359Z" transform="translate(-372.344 -312.463)" fill="#5dc1d8"/><path d="M439.737,369.544H379.024a6.68,6.68,0,1,1,0-13.359h60.713a6.68,6.68,0,1,1,0,13.359Z" transform="translate(-372.344 -314.992)" fill="#5dc1d8"/></g><path d="M465.356,287.2a4.466,4.466,0,0,1-4.453,4.453H352.554A4.466,4.466,0,0,1,348.1,287.2V250.466a4.466,4.466,0,0,1,4.453-4.453H460.9a4.466,4.466,0,0,1,4.453,4.453Z" transform="translate(-38.074 -27.325)" fill="#c3ddf4"/><path d="M365.773,287.2V250.466a4.466,4.466,0,0,1,4.453-4.453H352.554a4.466,4.466,0,0,0-4.453,4.453V287.2a4.466,4.466,0,0,0,4.453,4.453h17.672A4.466,4.466,0,0,1,365.773,287.2Z" transform="translate(-38.074 -27.325)" fill="#aec1ed"/><path d="M451.294,407.02a4.466,4.466,0,0,1-4.453,4.453H370.553a4.466,4.466,0,0,1-4.453-4.453v-15.06a4.466,4.466,0,0,1,4.453-4.453h76.288a4.466,4.466,0,0,1,4.453,4.453v15.06Z" transform="translate(-40.042 -42.801)" fill="#c3ddf4"/><path d="M383.772,407.02v-15.06a4.466,4.466,0,0,1,4.453-4.453H370.553a4.466,4.466,0,0,0-4.453,4.453v15.06a4.466,4.466,0,0,0,4.453,4.453h17.672A4.466,4.466,0,0,1,383.772,407.02Z" transform="translate(-40.042 -42.801)" fill="#aec1ed"/></g></svg>