<svg xmlns="http://www.w3.org/2000/svg" width="456" height="362.154" viewBox="0 0 456 362.154"><g transform="translate(0 -52.685)"><g transform="translate(0 75.336)"><path d="M446.98,145.329c-19.912-50.666-81.248-81.049-133.2-60.943-59.3,22.95-39.638,117.271-93.5,136.344-29.1,10.3-72.108-28.183-101.5-34.084C64.609,175.771,15.572,213.993,3.5,266.921c-12.319,54,7.439,126.121,66.767,140.777,70.671,17.458,107.483-46.071,166.768-64.313,60.839-18.72,128.484,25.491,178.85-28.3,37.21-39.741,50.815-119.586,31.1-169.757Z" transform="translate(0 -78.118)" fill="#69cdff"/></g><g transform="translate(48.818 52.685)"><g transform="translate(0 21.723)"><g transform="translate(4.45 45.644)"><path d="M391.459,361.144H77.624a17.812,17.812,0,0,1-17.812-17.812V146.138a17.812,17.812,0,0,1,17.812-17.812H391.458a17.812,17.812,0,0,1,17.813,17.812V343.332A17.811,17.811,0,0,1,391.459,361.144Z" transform="translate(-59.81 -128.326)" fill="#c3ddf4"/><g transform="translate(0 0.004)"><path d="M439.242,146.143V221.4a63.692,63.692,0,0,1-86.854-93.07H421.43a17.813,17.813,0,0,1,17.813,17.812Z" transform="translate(-89.779 -128.331)" fill="#aec1ed"/><path d="M409.273,146.143V168.6L250.822,290.318a26.728,26.728,0,0,1-32.561,0L59.81,168.6V146.143a17.813,17.813,0,0,1,17.812-17.812H391.461A17.813,17.813,0,0,1,409.273,146.143Z" transform="translate(-59.81 -128.331)" fill="#aec1ed"/><path d="M239.967,223.485l169.3,130.053a17.812,17.812,0,0,1-17.812,17.813H77.624a17.812,17.812,0,0,1-17.812-17.812l169.3-130.053a8.906,8.906,0,0,1,10.851,0Z" transform="translate(-59.81 -138.537)" fill="#aec1ed"/></g><path d="M229.116,276.193,59.812,146.138a17.812,17.812,0,0,1,17.812-17.812H391.458a17.812,17.812,0,0,1,17.813,17.812l-169.3,130.054A8.908,8.908,0,0,1,229.116,276.193Z" transform="translate(-59.81 -128.326)" fill="#c3ddf4"/></g><g transform="translate(137.356 226.125)"><path d="M366.886,359.608H338.267a4.454,4.454,0,0,1-4.453-4.453V335.424a4.454,4.454,0,0,1,4.453-4.453h28.619a4.454,4.454,0,0,1,4.453,4.453v19.731A4.453,4.453,0,0,1,366.886,359.608Z" transform="translate(-222.685 -330.971)" fill="#ffaf10"/><g transform="translate(0 1.578)"><g transform="translate(62.344)"><path d="M308.28,341.649H283.491a4.453,4.453,0,0,1,0-8.906H308.28a4.453,4.453,0,0,1,0,8.906Z" transform="translate(-279.038 -332.743)" fill="#fff"/></g><g transform="translate(0 18.153)"><path d="M300.624,362.031H213.491a4.453,4.453,0,0,1,0-8.906h87.132a4.453,4.453,0,0,1,0,8.906Z" transform="translate(-209.038 -353.125)" fill="#fff"/></g></g></g><circle cx="63.695" cy="63.695" r="63.695" transform="translate(248.484 4.453)" fill="#ff9518"/><path d="M366.992,213.372a68.263,68.263,0,1,0-41.738-14.335l-88.546,68.019a4.457,4.457,0,0,1-5.426,0L63.879,138.461a13.382,13.382,0,0,1,13.2-11.288H281.357a4.453,4.453,0,1,0,0-8.906H77.079a22.291,22.291,0,0,0-22.266,22.266V337.726a22.291,22.291,0,0,0,22.266,22.266H390.912a22.291,22.291,0,0,0,22.266-22.266V220.039a4.453,4.453,0,1,0-8.906,0V328.69l-116.59-89.56,45.368-34.85a67.7,67.7,0,0,0,33.942,9.092ZM180.308,239.13,63.719,328.69V149.569ZM404.1,339.786a13.368,13.368,0,0,1-13.184,11.3H77.079a13.368,13.368,0,0,1-13.184-11.3l123.725-95.041,38.238,29.373a13.376,13.376,0,0,0,16.277,0l38.238-29.374ZM307.75,145.224a59.242,59.242,0,1,1,59.242,59.242A59.309,59.309,0,0,1,307.75,145.224Z" transform="translate(-54.813 -77.076)" fill="#293d7c"/><path d="M374.07,128.444l9.09,21.721-9.09,21.721a4.453,4.453,0,0,0,5.857,5.814l54.879-23.44a4.453,4.453,0,0,0,0-8.19l-54.879-23.44A4.453,4.453,0,0,0,374.07,128.444Z" transform="translate(-89.693 -82.018)" fill="#fff"/><path d="M404.239,155.8,376.875,167.5l6.628-15.853-6.636-15.853,27.372,11.694C407.653,148.946,407.653,154.352,404.239,155.8Z" transform="translate(-90.038 -83.498)" fill="#ffdeb7"/></g><path d="M329.243,78.5a12.908,12.908,0,1,1,9.131-3.776A12.87,12.87,0,0,1,329.243,78.5Zm0-16.914a4.006,4.006,0,1,0,2.833,1.172A4,4,0,0,0,329.243,61.587Z" transform="translate(-83.417 -52.685)" fill="#ffaf10"/><path d="M216.953,456.145a12.908,12.908,0,1,1,9.132-3.776,12.876,12.876,0,0,1-9.132,3.776Zm0-16.914a4.006,4.006,0,1,0,2.834,1.172A4,4,0,0,0,216.953,439.231Z" transform="translate(-71.135 -93.99)" fill="#ffaf10"/><path d="M292.155,92.414a4.438,4.438,0,0,1-3.148-1.3L283.694,85.8l-5.313,5.312a4.453,4.453,0,0,1-6.3-6.3l8.461-8.461a4.453,4.453,0,0,1,6.3,0l8.461,8.461a4.453,4.453,0,0,1-3.148,7.6Z" transform="translate(-78.435 -55.131)" fill="#5dc1d8"/><path d="M437.121,438.189a4.438,4.438,0,0,1-3.148-1.3l-5.313-5.312-5.313,5.312a4.453,4.453,0,0,1-6.3-6.3l8.461-8.461a4.453,4.453,0,0,1,6.3,0l8.461,8.461a4.453,4.453,0,0,1-3.148,7.6Z" transform="translate(-94.29 -92.951)" fill="#5dc1d8"/></g></g></svg>